<svg width="200" height="40" viewBox="0 0 200 40" fill="none" xmlns="http://www.w3.org/2000/svg">
<path d="M21.92 10.08C23.456 10.08 24.744 10.056 25.784 10.008L25.664 10.488C25.072 10.52 24.632 10.584 24.344 10.68C24.072 10.776 23.848 10.96 23.672 11.232C23.512 11.504 23.352 11.944 23.192 12.552L20.024 24.456C19.896 25 19.832 25.384 19.832 25.608C19.832 25.96 19.944 26.192 20.168 26.304C20.408 26.416 20.832 26.488 21.44 26.52L21.344 27C20.336 26.952 19.056 26.928 17.504 26.928C15.76 26.928 14.48 26.952 13.664 27L13.76 26.52C14.352 26.488 14.784 26.424 15.056 26.328C15.344 26.232 15.568 26.048 15.728 25.776C15.904 25.504 16.072 25.064 16.232 24.456L19.712 11.52L9.752 27.12H9.224L7.28 12.384L4.256 23.904C4.128 24.368 4.064 24.76 4.064 25.08C4.064 25.544 4.216 25.896 4.52 26.136C4.824 26.376 5.336 26.504 6.056 26.52L5.96 27C5.384 26.952 4.488 26.928 3.272 26.928C2.312 26.928 1.552 26.952 0.992 27L1.112 26.52C1.88 26.488 2.448 26.256 2.816 25.824C3.2 25.392 3.496 24.752 3.704 23.904L6.752 12.552C6.88 12.008 6.944 11.624 6.944 11.4C6.944 11.048 6.824 10.816 6.584 10.704C6.36 10.592 5.944 10.52 5.336 10.488L5.456 10.008C6.176 10.056 7.272 10.08 8.744 10.08C9.576 10.08 10.296 10.056 10.904 10.008L12.272 22.272L20.048 10.08H21.92ZM35.6534 23.112H36.1094L35.5094 24.864C35.1894 25.76 34.7414 26.4 34.1654 26.784C33.6054 27.152 32.9974 27.336 32.3414 27.336C31.5094 27.336 30.9174 27.088 30.5654 26.592C30.3414 26.304 30.2294 25.904 30.2294 25.392C30.2294 24.976 30.3014 24.504 30.4454 23.976C29.9014 25.16 29.2934 26.016 28.6214 26.544C27.9654 27.072 27.2374 27.336 26.4374 27.336C25.5574 27.336 24.8854 27.08 24.4214 26.568C23.9734 26.04 23.7494 25.312 23.7494 24.384C23.7494 22.96 24.1254 21.456 24.8774 19.872C25.6454 18.272 26.6134 16.936 27.7814 15.864C28.9494 14.792 30.0934 14.256 31.2134 14.256C31.6454 14.256 31.9894 14.384 32.2454 14.64C32.5174 14.896 32.6774 15.28 32.7254 15.792L33.0614 14.616C34.3414 14.6 35.5014 14.48 36.5414 14.256L33.3974 24.96C33.3174 25.232 33.2774 25.456 33.2774 25.632C33.2774 25.984 33.4294 26.16 33.7334 26.16C34.2934 26.16 34.7894 25.528 35.2214 24.264L35.6534 23.112ZM32.4614 16.728C32.4774 16.648 32.4854 16.528 32.4854 16.368C32.4854 15.968 32.4134 15.664 32.2694 15.456C32.1414 15.248 31.9414 15.144 31.6694 15.144C31.1254 15.144 30.5014 15.632 29.7974 16.608C29.1094 17.584 28.5174 18.808 28.0214 20.28C27.5414 21.752 27.3014 23.176 27.3014 24.552C27.3014 25.08 27.3494 25.464 27.4454 25.704C27.5574 25.928 27.7334 26.04 27.9734 26.04C28.3254 26.04 28.7094 25.8 29.1254 25.32C29.5574 24.824 29.9814 24.12 30.3974 23.208C30.8294 22.28 31.2054 21.184 31.5254 19.92L31.4054 20.496L32.4614 16.728ZM49.5403 23.112H49.9963L49.4203 24.864C49.1323 25.776 48.7003 26.416 48.1243 26.784C47.5643 27.152 46.9403 27.336 46.2523 27.336C45.2603 27.336 44.6283 26.968 44.3563 26.232C44.2283 25.944 44.1643 25.608 44.1643 25.224C44.1643 24.76 44.2603 24.192 44.4523 23.52L44.4763 23.424C43.8683 24.784 43.2203 25.776 42.5323 26.4C41.8603 27.024 41.0523 27.336 40.1083 27.336C39.2603 27.336 38.5723 27.056 38.0443 26.496C37.5163 25.936 37.2523 25.096 37.2523 23.976C37.2523 22.68 37.5883 21.272 38.2603 19.752C38.9323 18.216 39.8763 16.92 41.0923 15.864C42.3083 14.792 43.6923 14.256 45.2443 14.256C45.9963 14.256 46.4843 14.528 46.7083 15.072L47.7883 10.992C47.8683 10.704 47.9083 10.48 47.9083 10.32C47.9083 10 47.7803 9.768 47.5243 9.624C47.2843 9.48 46.8683 9.408 46.2763 9.408L46.4203 8.904C47.5243 8.888 48.5243 8.8 49.4203 8.64C50.3323 8.48 51.2043 8.24 52.0363 7.92L47.3323 24.96C47.2523 25.184 47.2123 25.4 47.2123 25.608C47.2123 25.976 47.3643 26.16 47.6683 26.16C47.9083 26.16 48.1483 26.024 48.3883 25.752C48.6283 25.464 48.8763 24.968 49.1323 24.264L49.5403 23.112ZM46.5403 15.648C46.3643 15.088 46.0443 14.808 45.5803 14.808C44.8923 14.808 44.1723 15.304 43.4203 16.296C42.6843 17.272 42.0603 18.512 41.5483 20.016C41.0523 21.52 40.8043 23.008 40.8043 24.48C40.8043 25.04 40.8603 25.456 40.9723 25.728C41.1003 26 41.3003 26.136 41.5723 26.136C41.8923 26.136 42.2683 25.904 42.7003 25.44C43.1323 24.96 43.5803 24.272 44.0443 23.376C44.5243 22.48 44.9563 21.416 45.3403 20.184L46.5403 15.648ZM63.4387 23.112H63.8947L63.3187 24.864C63.0307 25.776 62.5987 26.416 62.0227 26.784C61.4627 27.152 60.8387 27.336 60.1507 27.336C59.1587 27.336 58.5267 26.968 58.2547 26.232C58.1267 25.944 58.0627 25.608 58.0627 25.224C58.0627 24.76 58.1587 24.192 58.3507 23.52L58.3747 23.424C57.7667 24.784 57.1187 25.776 56.4307 26.4C55.7587 27.024 54.9507 27.336 54.0067 27.336C53.1587 27.336 52.4707 27.056 51.9427 26.496C51.4147 25.936 51.1507 25.096 51.1507 23.976C51.1507 22.68 51.4867 21.272 52.1587 19.752C52.8307 18.216 53.7747 16.92 54.9907 15.864C56.2067 14.792 57.5907 14.256 59.1427 14.256C59.8947 14.256 60.3827 14.528 60.6067 15.072L61.6867 10.992C61.7667 10.704 61.8067 10.48 61.8067 10.32C61.8067 10 61.6787 9.768 61.4227 9.624C61.1827 9.48 60.7667 9.408 60.1747 9.408L60.3187 8.904C61.4227 8.888 62.4227 8.8 63.3187 8.64C64.2307 8.48 65.1027 8.24 65.9347 7.92L61.2307 24.96C61.1507 25.184 61.1107 25.4 61.1107 25.608C61.1107 25.976 61.2627 26.16 61.5667 26.16C61.8067 26.16 62.0467 26.024 62.2867 25.752C62.5267 25.464 62.7747 24.968 63.0307 24.264L63.4387 23.112ZM60.4387 15.648C60.2627 15.088 59.9427 14.808 59.4787 14.808C58.7907 14.808 58.0707 15.304 57.3187 16.296C56.5827 17.272 55.9587 18.512 55.4467 20.016C54.9507 21.52 54.7027 23.008 54.7027 24.48C54.7027 25.04 54.7587 25.456 54.8707 25.728C54.9987 26 55.1987 26.136 55.4707 26.136C55.7907 26.136 56.1667 25.904 56.5987 25.44C57.0307 24.96 57.4787 24.272 57.9427 23.376C58.4227 22.48 58.8547 21.416 59.2387 20.184L60.4387 15.648ZM69.2011 10.584C69.2171 9.928 69.4571 9.408 69.9211 9.024C70.3851 8.64 70.9611 8.448 71.6491 8.448C72.2091 8.448 72.6411 8.584 72.9451 8.856C73.2651 9.112 73.4251 9.472 73.4251 9.936C73.4251 10.576 73.1851 11.104 72.7051 11.52C72.2251 11.936 71.6331 12.144 70.9291 12.144C70.3531 12.144 69.9131 12.008 69.6091 11.736C69.3051 11.448 69.1691 11.064 69.2011 10.584ZM68.2891 16.632C68.4011 16.264 68.4571 16.024 68.4571 15.912C68.4571 15.592 68.3131 15.432 68.0251 15.432C67.7371 15.432 67.4731 15.584 67.2331 15.888C66.9931 16.176 66.7451 16.656 66.4891 17.328L66.0091 18.552H65.5531L66.2251 16.728C66.8171 15.08 67.9291 14.256 69.5611 14.256C70.2971 14.256 70.8331 14.44 71.1691 14.808C71.5051 15.16 71.6731 15.624 71.6731 16.2C71.6731 16.664 71.5851 17.136 71.4091 17.616L68.8891 24.96C68.7931 25.248 68.7451 25.48 68.7451 25.656C68.7451 25.992 68.9051 26.16 69.2251 26.16C69.4651 26.16 69.7051 26.024 69.9451 25.752C70.2011 25.48 70.4651 24.984 70.7371 24.264L71.1691 23.112H71.6251L71.0011 24.864C70.4411 26.512 69.3611 27.336 67.7611 27.336C66.3051 27.336 65.5771 26.672 65.5771 25.344C65.5771 24.816 65.6971 24.208 65.9371 23.52L68.2891 16.632ZM83.9195 16.152C83.9195 17.48 83.1755 18.64 81.6875 19.632C80.1995 20.624 78.4715 21.392 76.5035 21.936C76.4075 22.48 76.3595 23.024 76.3595 23.568C76.3595 24.416 76.5115 25.016 76.8155 25.368C77.1355 25.72 77.5995 25.896 78.2075 25.896C78.7035 25.896 79.2635 25.744 79.8875 25.44C80.5115 25.12 81.1195 24.616 81.7115 23.928L82.0955 24.12C81.5195 25.016 80.7435 25.776 79.7675 26.4C78.8075 27.024 77.7275 27.336 76.5275 27.336C75.4235 27.336 74.5195 27.04 73.8155 26.448C73.1115 25.856 72.7595 25.024 72.7595 23.952C72.7595 22.528 73.1435 21.056 73.9115 19.536C74.6795 18.016 75.7275 16.76 77.0555 15.768C78.3835 14.76 79.8395 14.256 81.4235 14.256C82.1595 14.256 82.7595 14.424 83.2235 14.76C83.6875 15.08 83.9195 15.544 83.9195 16.152ZM80.8955 14.712C80.4315 14.712 79.9035 15.04 79.3115 15.696C78.7195 16.352 78.1755 17.208 77.6795 18.264C77.1835 19.304 76.8155 20.376 76.5755 21.48C77.7115 20.984 78.5915 20.448 79.2155 19.872C79.8555 19.296 80.3595 18.64 80.7275 17.904C81.0955 17.152 81.2795 16.352 81.2795 15.504C81.2795 15.2 81.2475 14.992 81.1835 14.88C81.1195 14.768 81.0235 14.712 80.8955 14.712ZM101.935 23.112H102.391L101.791 24.864C101.471 25.76 101.023 26.4 100.447 26.784C99.8867 27.152 99.2787 27.336 98.6227 27.336C97.7907 27.336 97.1987 27.088 96.8467 26.592C96.6227 26.304 96.5107 25.904 96.5107 25.392C96.5107 24.976 96.5827 24.504 96.7267 23.976C96.1827 25.16 95.5747 26.016 94.9027 26.544C94.2467 27.072 93.5187 27.336 92.7187 27.336C91.8387 27.336 91.1667 27.08 90.7027 26.568C90.2547 26.04 90.0307 25.312 90.0307 24.384C90.0307 22.96 90.4067 21.456 91.1587 19.872C91.9267 18.272 92.8947 16.936 94.0627 15.864C95.2307 14.792 96.3747 14.256 97.4947 14.256C97.9267 14.256 98.2707 14.384 98.5267 14.64C98.7987 14.896 98.9587 15.28 99.0067 15.792L99.3427 14.616C100.623 14.6 101.783 14.48 102.823 14.256L99.6787 24.96C99.5987 25.232 99.5587 25.456 99.5587 25.632C99.5587 25.984 99.7107 26.16 100.015 26.16C100.575 26.16 101.071 25.528 101.503 24.264L101.935 23.112ZM98.7427 16.728C98.7587 16.648 98.7667 16.528 98.7667 16.368C98.7667 15.968 98.6947 15.664 98.5507 15.456C98.4227 15.248 98.2227 15.144 97.9507 15.144C97.4067 15.144 96.7827 15.632 96.0787 16.608C95.3907 17.584 94.7987 18.808 94.3027 20.28C93.8227 21.752 93.5827 23.176 93.5827 24.552C93.5827 25.08 93.6307 25.464 93.7267 25.704C93.8387 25.928 94.0147 26.04 94.2547 26.04C94.6067 26.04 94.9907 25.8 95.4067 25.32C95.8387 24.824 96.2627 24.12 96.6787 23.208C97.1107 22.28 97.4867 21.184 97.8067 19.92L97.6867 20.496L98.7427 16.728ZM116.854 23.112L116.254 24.864C115.678 26.512 114.606 27.336 113.038 27.336C112.142 27.336 111.502 27.072 111.118 26.544C110.91 26.24 110.806 25.864 110.806 25.416C110.806 24.904 110.934 24.272 111.19 23.52L113.35 17.04C113.494 16.608 113.566 16.264 113.566 16.008C113.566 15.64 113.414 15.456 113.11 15.456C112.63 15.456 112.046 15.944 111.358 16.92C110.686 17.896 110.006 19.184 109.318 20.784C108.63 22.368 108.03 24.04 107.518 25.8L107.206 27H103.822L106.726 16.632C106.822 16.344 106.87 16.088 106.87 15.864C106.87 15.576 106.734 15.432 106.462 15.432C106.158 15.432 105.886 15.576 105.646 15.864C105.422 16.136 105.182 16.624 104.926 17.328L104.47 18.552H104.014L104.662 16.728C104.966 15.848 105.374 15.216 105.886 14.832C106.398 14.448 107.022 14.256 107.758 14.256C109.134 14.256 109.822 14.912 109.822 16.224C109.822 16.672 109.758 17.136 109.63 17.616L108.886 20.52C109.542 18.888 110.166 17.624 110.758 16.728C111.366 15.816 111.974 15.176 112.582 14.808C113.206 14.44 113.894 14.256 114.646 14.256C116.086 14.256 116.806 14.896 116.806 16.176C116.806 16.656 116.702 17.224 116.494 17.88L114.142 24.96C114.046 25.248 113.998 25.48 113.998 25.656C113.998 25.992 114.15 26.16 114.454 26.16C114.71 26.16 114.958 26.024 115.198 25.752C115.454 25.48 115.71 24.984 115.966 24.264L116.398 23.112H116.854ZM130.282 23.112H130.738L130.162 24.864C129.874 25.776 129.442 26.416 128.866 26.784C128.306 27.152 127.682 27.336 126.994 27.336C126.002 27.336 125.37 26.968 125.098 26.232C124.97 25.944 124.906 25.608 124.906 25.224C124.906 24.76 125.002 24.192 125.194 23.52L125.218 23.424C124.61 24.784 123.962 25.776 123.274 26.4C122.602 27.024 121.794 27.336 120.85 27.336C120.002 27.336 119.314 27.056 118.786 26.496C118.258 25.936 117.994 25.096 117.994 23.976C117.994 22.68 118.33 21.272 119.002 19.752C119.674 18.216 120.618 16.92 121.834 15.864C123.05 14.792 124.434 14.256 125.986 14.256C126.738 14.256 127.226 14.528 127.45 15.072L128.53 10.992C128.61 10.704 128.65 10.48 128.65 10.32C128.65 10 128.522 9.768 128.266 9.624C128.026 9.48 127.61 9.408 127.018 9.408L127.162 8.904C128.266 8.888 129.266 8.8 130.162 8.64C131.074 8.48 131.946 8.24 132.778 7.92L128.074 24.96C127.994 25.184 127.954 25.4 127.954 25.608C127.954 25.976 128.106 26.16 128.41 26.16C128.65 26.16 128.89 26.024 129.13 25.752C129.37 25.464 129.618 24.968 129.874 24.264L130.282 23.112ZM127.282 15.648C127.106 15.088 126.786 14.808 126.322 14.808C125.634 14.808 124.914 15.304 124.162 16.296C123.426 17.272 122.802 18.512 122.29 20.016C121.794 21.52 121.546 23.008 121.546 24.48C121.546 25.04 121.602 25.456 121.714 25.728C121.842 26 122.042 26.136 122.314 26.136C122.634 26.136 123.01 25.904 123.442 25.44C123.874 24.96 124.322 24.272 124.786 23.376C125.266 22.48 125.698 21.416 126.082 20.184L127.282 15.648ZM153.634 24.096H154.186L154.09 24.408C153.786 25.416 153.346 26.16 152.77 26.64C152.194 27.104 151.41 27.336 150.418 27.336C149.442 27.336 148.706 27.128 148.21 26.712C147.73 26.296 147.49 25.728 147.49 25.008C147.49 24.8 147.498 24.648 147.514 24.552L147.874 21.816C147.906 21.432 147.922 21.168 147.922 21.024C147.922 20.288 147.69 19.752 147.226 19.416C146.778 19.064 145.962 18.872 144.778 18.84L143.29 24.456C143.13 25.016 143.05 25.408 143.05 25.632C143.05 25.936 143.17 26.16 143.41 26.304C143.65 26.432 144.074 26.504 144.682 26.52L144.586 27C143.626 26.952 142.378 26.928 140.842 26.928C139.066 26.928 137.754 26.952 136.906 27L137.002 26.52C137.578 26.488 138.01 26.424 138.298 26.328C138.586 26.232 138.81 26.048 138.97 25.776C139.146 25.504 139.314 25.064 139.474 24.456L142.618 12.552C142.762 11.976 142.834 11.6 142.834 11.424C142.834 11.104 142.714 10.872 142.474 10.728C142.25 10.584 141.834 10.504 141.226 10.488L141.346 10.008C142.162 10.056 143.37 10.08 144.97 10.08L147.034 10.056C147.402 10.04 147.914 10.032 148.57 10.032C150.522 10.032 151.962 10.304 152.89 10.848C153.834 11.392 154.306 12.232 154.306 13.368C154.306 14.776 153.666 15.96 152.386 16.92C151.122 17.864 149.41 18.456 147.25 18.696C148.706 18.84 149.81 19.104 150.562 19.488C151.314 19.872 151.69 20.536 151.69 21.48C151.69 21.576 151.674 21.752 151.642 22.008L151.306 24.48C151.29 24.608 151.282 24.784 151.282 25.008C151.282 25.776 151.538 26.16 152.05 26.16C152.354 26.16 152.618 26.024 152.842 25.752C153.066 25.464 153.29 25.024 153.514 24.432L153.634 24.096ZM144.874 18.408H145.066C146.682 18.408 147.978 17.936 148.954 16.992C149.946 16.032 150.442 14.704 150.442 13.008C150.442 12.144 150.258 11.512 149.89 11.112C149.522 10.696 148.962 10.488 148.21 10.488C147.73 10.488 147.37 10.6 147.13 10.824C146.906 11.032 146.714 11.448 146.554 12.072L144.874 18.408ZM159.225 10.584C159.241 9.928 159.481 9.408 159.945 9.024C160.409 8.64 160.985 8.448 161.673 8.448C162.233 8.448 162.665 8.584 162.969 8.856C163.289 9.112 163.449 9.472 163.449 9.936C163.449 10.576 163.209 11.104 162.729 11.52C162.249 11.936 161.657 12.144 160.953 12.144C160.377 12.144 159.937 12.008 159.633 11.736C159.329 11.448 159.193 11.064 159.225 10.584ZM158.313 16.632C158.425 16.264 158.481 16.024 158.481 15.912C158.481 15.592 158.337 15.432 158.049 15.432C157.761 15.432 157.497 15.584 157.257 15.888C157.017 16.176 156.769 16.656 156.513 17.328L156.033 18.552H155.577L156.249 16.728C156.841 15.08 157.953 14.256 159.585 14.256C160.321 14.256 160.857 14.44 161.193 14.808C161.529 15.16 161.697 15.624 161.697 16.2C161.697 16.664 161.609 17.136 161.433 17.616L158.913 24.96C158.817 25.248 158.769 25.48 158.769 25.656C158.769 25.992 158.929 26.16 159.249 26.16C159.489 26.16 159.729 26.024 159.969 25.752C160.225 25.48 160.489 24.984 160.761 24.264L161.193 23.112H161.649L161.025 24.864C160.465 26.512 159.385 27.336 157.785 27.336C156.329 27.336 155.601 26.672 155.601 25.344C155.601 24.816 155.721 24.208 155.961 23.52L158.313 16.632ZM173.919 19.104C173.231 18.768 172.663 18.32 172.215 17.76C171.783 17.2 171.567 16.576 171.567 15.888C171.567 15.376 171.703 14.976 171.975 14.688C172.263 14.4 172.647 14.256 173.127 14.256C173.703 14.256 174.119 14.504 174.375 15C174.647 15.48 174.767 16.152 174.735 17.016C174.655 18.632 174.311 20.24 173.703 21.84C173.095 23.424 172.215 24.736 171.063 25.776C169.911 26.816 168.535 27.336 166.935 27.336C165.735 27.336 164.871 27.064 164.343 26.52C163.815 25.976 163.551 25.296 163.551 24.48C163.551 21.84 165.695 18.76 169.983 15.24C169.599 15.288 169.255 15.4 168.951 15.576C168.663 15.752 168.319 16.008 167.919 16.344C167.583 16.632 167.303 16.848 167.079 16.992C166.855 17.12 166.623 17.184 166.383 17.184C166.175 17.184 165.927 17.104 165.639 16.944C165.383 16.8 165.175 16.728 165.015 16.728C164.791 16.728 164.607 16.816 164.463 16.992C164.335 17.152 164.199 17.448 164.055 17.88L163.863 18.528H163.407L163.935 16.776C164.399 15.08 165.151 14.232 166.191 14.232C166.383 14.232 166.551 14.264 166.695 14.328C166.839 14.376 167.023 14.464 167.247 14.592C167.487 14.736 167.703 14.848 167.895 14.928C168.103 14.992 168.351 15.024 168.639 15.024C169.295 15.024 169.879 14.856 170.391 14.52L170.631 14.064L171.135 14.304C169.951 16.016 169.007 17.8 168.303 19.656C167.599 21.496 167.247 23.104 167.247 24.48C167.247 25.088 167.335 25.536 167.511 25.824C167.687 26.112 167.959 26.256 168.327 26.256C169.271 26.256 170.135 25.888 170.919 25.152C171.703 24.416 172.351 23.496 172.863 22.392C173.375 21.288 173.727 20.192 173.919 19.104ZM186.552 16.152C186.552 17.48 185.808 18.64 184.32 19.632C182.832 20.624 181.104 21.392 179.136 21.936C179.04 22.48 178.992 23.024 178.992 23.568C178.992 24.416 179.144 25.016 179.448 25.368C179.768 25.72 180.232 25.896 180.84 25.896C181.336 25.896 181.896 25.744 182.52 25.44C183.144 25.12 183.752 24.616 184.344 23.928L184.728 24.12C184.152 25.016 183.376 25.776 182.4 26.4C181.44 27.024 180.36 27.336 179.16 27.336C178.056 27.336 177.152 27.04 176.448 26.448C175.744 25.856 175.392 25.024 175.392 23.952C175.392 22.528 175.776 21.056 176.544 19.536C177.312 18.016 178.36 16.76 179.688 15.768C181.016 14.76 182.472 14.256 184.056 14.256C184.792 14.256 185.392 14.424 185.856 14.76C186.32 15.08 186.552 15.544 186.552 16.152ZM183.528 14.712C183.064 14.712 182.536 15.04 181.944 15.696C181.352 16.352 180.808 17.208 180.312 18.264C179.816 19.304 179.448 20.376 179.208 21.48C180.344 20.984 181.224 20.448 181.848 19.872C182.488 19.296 182.992 18.64 183.36 17.904C183.728 17.152 183.912 16.352 183.912 15.504C183.912 15.2 183.88 14.992 183.816 14.88C183.752 14.768 183.656 14.712 183.528 14.712ZM196.578 14.256C197.186 14.256 197.658 14.44 197.994 14.808C198.346 15.16 198.522 15.624 198.522 16.2C198.522 16.888 198.298 17.48 197.85 17.976C197.418 18.456 196.882 18.696 196.242 18.696C195.778 18.696 195.418 18.576 195.162 18.336C194.906 18.08 194.778 17.72 194.778 17.256C194.778 16.696 194.97 16.192 195.354 15.744C195.738 15.28 196.21 14.984 196.77 14.856C196.738 14.856 196.69 14.848 196.626 14.832C196.562 14.8 196.506 14.784 196.458 14.784C195.642 14.784 194.81 15.376 193.962 16.56C193.114 17.744 192.25 19.856 191.37 22.896L190.314 27H186.93L189.858 16.632C189.938 16.376 189.978 16.128 189.978 15.888C189.978 15.584 189.85 15.432 189.594 15.432C189.29 15.432 189.018 15.576 188.778 15.864C188.538 16.152 188.29 16.64 188.034 17.328L187.578 18.552H187.122L187.77 16.728C188.362 15.08 189.466 14.256 191.082 14.256C192.314 14.256 192.93 14.904 192.93 16.2C192.93 16.664 192.866 17.136 192.738 17.616L192.546 18.384C193.138 16.864 193.738 15.8 194.346 15.192C194.97 14.568 195.714 14.256 196.578 14.256Z" fill="#FFCCC2"/>
</svg>
